<svg width="82" height="73" viewBox="0 0 82 73" fill="none" xmlns="http://www.w3.org/2000/svg">
<path d="M50.4137 5.02836C56.6205 1.41726 63.5858 0.775273 70.8961 5.02836C77.6718 9.97985 87.1578 23.6043 70.8961 38.4901L68.103 41.3046M68.103 41.3046L70.2754 43.4937C71.9822 46.7774 69.934 52.9694 63.6031 50.2174M68.103 41.3046L53.9826 27.0756C52.172 25.1992 47.0922 22.5723 41.2578 27.0756C36.9131 32.0792 33.0338 34.8937 26.9822 29.7338C26.7236 29.3689 26.6098 28.2327 28.2236 26.6065C29.3975 25.4236 35.5143 19.2597 40.7923 13.9411M63.6031 50.2174L48.5517 35.2065M63.6031 50.2174C68.2582 53.9701 64.8445 63.6021 56.7757 57.0974M56.7757 57.0974L51.0344 51.4683M56.7757 57.0974C59.3737 61.6319 55.8757 67.6725 49.7931 64.1337M49.7931 64.1337C51.2067 68.3221 47.3558 73.4567 41.413 68.5119M49.7931 64.1337L45.3483 59.5992M41.413 68.5119C37.0682 73.5155 29.6207 68.0428 34.4313 61.6319M41.413 68.5119L45.137 64.1337C46.0997 62.2397 46.0128 60.7424 45.3483 59.5992M34.4313 61.6319C31.6375 68.3555 18.6033 65.2282 26.3618 56.0028M34.4313 61.6319L39.2406 56.6283M26.3618 56.0028C21.5514 61.9446 12.7069 56.0028 19.5344 49.1228M26.3618 56.0028L33.189 49.1228M19.5344 49.1228C16.2755 50.9992 10.1309 48.2781 12.8619 42.399L13.7928 41.4369M19.5344 49.1228C20.8791 47.7155 24.2164 44.7081 25.5857 42.8683M25.5857 42.8683C26.9822 40.9919 25.9478 38.5422 25.1202 37.3956C23.5685 35.2065 20.3099 35.0501 18.9134 36.1447L13.7928 41.4369M25.5857 42.8683C29.3098 36.6137 40.4819 40.2101 33.189 49.1228M33.189 49.1228C36.2924 48.341 42.0336 49.5919 39.2406 56.6283M39.2406 56.6283C41.3937 56.7269 44.2134 57.6466 45.3483 59.5992M13.7928 41.4369L6.83419 34.4247C5.22279 32.8089 2 27.8887 2 21.1338C2 12.6902 9.13778 5.0957 12.8618 4.09017M46.0681 8.6247C44.63 10.0738 42.77 11.9481 40.7923 13.9411M40.7923 13.9411C39.3441 12.624 30.6272 -0.334382 18.1376 2.37017M41.5682 41.9302L47.1542 47.5593" stroke="#94BFFF" stroke-width="4" stroke-linecap="round"/>
</svg>
