<svg width="88" height="95" viewBox="0 0 88 95" fill="none" xmlns="http://www.w3.org/2000/svg">
<path d="M81.8925 71.2273L79.9439 84.2197C79.6192 86.0603 78.1252 89.7415 74.7477 89.7415C71.3701 89.7415 42.3793 89.7415 28.3061 89.7415M28.3061 89.7415C27.8731 90.8242 26.6173 92.9896 25.0584 92.9896C23.4995 92.9896 12.0678 92.9896 6.54673 92.9896C5.03115 93.0979 2 92.405 2 88.7671C2 85.1292 2 54.7702 2 40.0454C2 38.5296 2.90935 35.498 6.54673 35.498C10.1841 35.498 19.1044 35.498 23.1098 35.498C24.8419 35.6063 28.3061 36.6674 28.3061 40.0454M28.3061 89.7415C28.3061 74.5836 28.3061 43.4234 28.3061 40.0454M28.3061 40.0454L52.3388 16.0094C53.3131 14.8184 55.2617 11.5919 55.2617 8.21388C55.2617 4.83585 58.9424 2.69209 60.7827 2.04247C65.1063 1.50112 72.1987 5.81037 64.6799 33.874C63.7227 37.4468 73.7734 36.0048 77.3458 36.1478C80.0522 36.256 85.465 38.0317 85.465 44.268C85.465 50.5044 84.1659 58.5597 83.5164 61.8078" stroke="#94BFFF" stroke-width="4" stroke-linecap="round"/>
</svg>
