<svg width="108" height="138" viewBox="0 0 108 138" fill="none" xmlns="http://www.w3.org/2000/svg">
<path d="M3 85.7291V15.4036C41.9091 -7.06054 87.2367 6.04356 105.037 15.4036V85.7291C105.037 99.6628 94.4119 109.938 89.0994 113.334L52.9508 134.204C45.3925 129.109 16.8022 113.334 16.8022 113.334C6.02334 108.864 3.10954 93.0684 3 85.7291Z" stroke="url(#paint0_linear_152_190)" stroke-width="5"/>
<path d="M17.1079 76.6124C20.2627 67.6738 30.253 51.3083 36.8254 44.0786C36.8254 44.0786 49.3132 59.5239 53.2566 68.0682C53.2566 68.0682 63.7726 83.8421 51.2849 96.3298C41.0318 106.583 27.7335 100.602 22.3659 96.3298C19.2988 93.4817 13.9532 85.5509 17.1079 76.6124Z" fill="url(#paint1_linear_152_190)"/>
<path d="M62.7742 46.1853C64.8852 40.0986 71.5704 28.9547 75.9684 24.0317C75.9684 24.0317 84.3248 34.5491 86.9636 40.3672C86.9636 40.3672 94.0006 51.1083 85.6442 59.6116C78.7832 66.5934 69.8844 62.5207 66.2926 59.6116C64.2402 57.6723 60.6631 52.2719 62.7742 46.1853Z" fill="url(#paint2_linear_152_190)"/>
<defs>
<linearGradient id="paint0_linear_152_190" x1="54.0184" y1="3" x2="126.116" y2="127.877" gradientUnits="userSpaceOnUse">
<stop stop-color="#62A1FF"/>
<stop offset="1" stop-color="#0167FF"/>
</linearGradient>
<linearGradient id="paint1_linear_152_190" x1="36.7708" y1="44.0786" x2="68.6456" y2="99.2874" gradientUnits="userSpaceOnUse">
<stop offset="0.230769" stop-color="#62A1FF"/>
<stop offset="1" stop-color="#0167FF"/>
</linearGradient>
<linearGradient id="paint2_linear_152_190" x1="75.9318" y1="24.0317" x2="98.6996" y2="63.4666" gradientUnits="userSpaceOnUse">
<stop offset="0.230769" stop-color="#62A1FF"/>
<stop offset="1" stop-color="#0167FF"/>
</linearGradient>
</defs>
</svg>
