<svg width="95" height="95" viewBox="0 0 95 95" fill="none" xmlns="http://www.w3.org/2000/svg">
<path d="M72.6463 9.46456C72.6463 9.46456 68.7486 13.3519 68.4241 13.5138C68.0995 13.6758 47.6375 13.6758 47.6375 13.6758C47.1503 13.6218 45.8837 13.8054 44.7144 14.9716C43.5452 16.1378 31.2357 28.3072 25.227 34.2462C23.9276 35.8659 24.4475 41.1138 29.7741 38.7814L43.0902 26.6335M72.6463 9.46456C71.2175 8.03943 71.726 7.14309 72.1589 6.87306C72.8085 5.99921 74.6598 3.93356 76.8683 2.66177C79.0769 1.38997 80.4951 2.23983 80.9282 2.82374C84.1861 6.33312 91.0207 13.9026 92.2958 16.1054C93.571 18.3082 92.8271 19.6148 92.2958 19.9927C92.2958 19.9927 86.612 25.0138 86.1248 25.0138C85.6377 25.0138 84.0137 22.7462 84.0137 22.7462M72.6463 9.46456L84.0137 22.7462M43.0902 26.6335C43.1444 25.8777 43.6424 24.3659 45.2014 24.3659C46.7604 24.3659 56.4607 24.3659 61.1161 24.3659M43.0902 26.6335C43.0361 27.9293 43.6099 30.5208 46.3381 30.5208C49.0664 30.5208 55.4323 30.3588 55.5946 30.5208C55.757 30.6828 58.6152 34.7321 60.9537 34.7321C63.2921 34.7321 66.4751 34.7321 67.7742 34.7321C68.5862 34.6781 70.5025 34.2786 71.6717 33.1124C72.841 31.9462 80.3869 25.7157 84.0137 22.7462M65.1759 24.366H66.4751M78.0051 7.68291L79.7914 9.62657" stroke="#94BFFF" stroke-width="3" stroke-linecap="round"/>
<path d="M23.4406 84.6195C23.4406 84.6195 26.2013 81.5421 26.6885 81.3801C27.1756 81.2181 47.4751 81.5421 48.4494 81.3801C49.4237 81.2181 69.8855 59.9999 69.8855 59.9999C70.8599 58.5421 70.8924 54.5253 65.8257 55.9506L51.8597 68.7463M51.8597 68.7463C51.8597 69.3942 51.405 70.69 49.5862 70.69C47.7673 70.69 38.3268 70.69 33.8339 70.69M51.8597 68.7463C51.9138 67.3426 51.3725 64.5351 48.7742 64.5351C46.1759 64.5351 41.4123 64.5351 39.3553 64.5351C38.4892 63.1313 36.3347 60.3238 34.6458 60.3238C32.9569 60.3238 27.1757 60.3238 27.1757 60.3238C24.7398 59.8379 11.4233 72.3097 11.4233 72.3097M11.4233 72.3097C11.4233 72.3097 9.31221 69.5562 8.98745 69.5562C8.66269 69.5562 2.49166 75.2252 2.49166 75.2252C2.00447 75.7651 1.45233 77.266 3.14124 78.9505C4.83014 80.635 11.2068 88.3988 14.1841 92.0702C14.8336 92.7721 16.555 93.7547 18.2439 92.0702C19.9328 90.3857 23.9277 87.211 23.9277 87.0491C23.9277 86.8871 11.4233 72.3097 11.4233 72.3097Z" stroke="#94BFFF" stroke-width="3" stroke-linecap="round"/>
<path d="M28.3124 70.6899H29.774M15.1584 85.1054L16.9448 87.211" stroke="#94BFFF" stroke-width="3" stroke-linecap="round"/>
<path d="M47.4756 36.5566C53.5566 36.5569 58.4794 41.4727 58.4795 47.5283C58.4795 53.584 53.5566 58.4997 47.4756 58.5C41.3943 58.5 36.4707 53.5842 36.4707 47.5283C36.4708 41.4725 41.3944 36.5566 47.4756 36.5566Z" stroke="#94BFFF" stroke-width="3"/>
<path d="M43.5776 47.366C43.5776 47.366 45.8512 49.9575 46.176 49.9575C46.5007 49.9575 51.3726 44.7744 51.3726 44.7744" stroke="#94BFFF" stroke-width="3" stroke-linecap="round"/>
</svg>
